<mxfile host="app.diagrams.net" modified="2024-05-14T11:44:37.286Z" agent="Mozilla/5.0 (Windows NT 10.0; Win64; x64) AppleWebKit/537.36 (KHTML, like Gecko) Chrome/124.0.0.0 Safari/537.36" etag="NwDvTdHdc9OfjZ7jPBCs" version="24.4.0" type="github">
  <diagram name="Page-1" id="0FUiNgVwgklD2cresCmt">
    <mxGraphModel dx="2631" dy="501" grid="1" gridSize="10" guides="1" tooltips="1" connect="1" arrows="1" fold="1" page="1" pageScale="1" pageWidth="827" pageHeight="1169" math="0" shadow="0">
      <root>
        <mxCell id="0" />
        <mxCell id="1" parent="0" />
        <mxCell id="44Fsm7tyjWuybCelUIXg-103" style="edgeStyle=orthogonalEdgeStyle;rounded=0;orthogonalLoop=1;jettySize=auto;html=1;entryX=1;entryY=0.5;entryDx=0;entryDy=0;fontSize=16;" edge="1" parent="1" source="44Fsm7tyjWuybCelUIXg-102" target="44Fsm7tyjWuybCelUIXg-118">
          <mxGeometry relative="1" as="geometry">
            <mxPoint x="-550" y="1220" as="targetPoint" />
          </mxGeometry>
        </mxCell>
        <mxCell id="44Fsm7tyjWuybCelUIXg-115" style="edgeStyle=orthogonalEdgeStyle;rounded=0;orthogonalLoop=1;jettySize=auto;html=1;entryX=0;entryY=0.5;entryDx=0;entryDy=0;fontSize=16;" edge="1" parent="1" source="44Fsm7tyjWuybCelUIXg-102" target="44Fsm7tyjWuybCelUIXg-117">
          <mxGeometry relative="1" as="geometry">
            <mxPoint x="682.5" y="1300" as="targetPoint" />
          </mxGeometry>
        </mxCell>
        <mxCell id="44Fsm7tyjWuybCelUIXg-102" value="" style="rounded=0;whiteSpace=wrap;html=1;fontSize=16;" vertex="1" parent="1">
          <mxGeometry x="-450" y="1290" width="890" height="550" as="geometry" />
        </mxCell>
        <mxCell id="44Fsm7tyjWuybCelUIXg-5" style="edgeStyle=orthogonalEdgeStyle;rounded=0;orthogonalLoop=1;jettySize=auto;html=1;entryX=0.5;entryY=0;entryDx=0;entryDy=0;fontSize=16;" edge="1" parent="1" source="44Fsm7tyjWuybCelUIXg-1" target="44Fsm7tyjWuybCelUIXg-4">
          <mxGeometry relative="1" as="geometry" />
        </mxCell>
        <mxCell id="44Fsm7tyjWuybCelUIXg-1" value="JSON файл" style="ellipse;whiteSpace=wrap;html=1;fontSize=16;" vertex="1" parent="1">
          <mxGeometry x="-560" y="30" width="120" height="80" as="geometry" />
        </mxCell>
        <mxCell id="44Fsm7tyjWuybCelUIXg-19" style="edgeStyle=orthogonalEdgeStyle;rounded=0;orthogonalLoop=1;jettySize=auto;html=1;entryX=0.5;entryY=0;entryDx=0;entryDy=0;fontSize=16;" edge="1" parent="1" source="44Fsm7tyjWuybCelUIXg-4" target="44Fsm7tyjWuybCelUIXg-18">
          <mxGeometry relative="1" as="geometry" />
        </mxCell>
        <mxCell id="44Fsm7tyjWuybCelUIXg-156" style="edgeStyle=orthogonalEdgeStyle;rounded=0;orthogonalLoop=1;jettySize=auto;html=1;entryX=1;entryY=0.5;entryDx=0;entryDy=0;" edge="1" parent="1" source="44Fsm7tyjWuybCelUIXg-4" target="44Fsm7tyjWuybCelUIXg-153">
          <mxGeometry relative="1" as="geometry" />
        </mxCell>
        <mxCell id="44Fsm7tyjWuybCelUIXg-4" value="Проходимся по объекту в формате JSON с помощью алгоритма DFS" style="rounded=1;whiteSpace=wrap;html=1;fontSize=16;" vertex="1" parent="1">
          <mxGeometry x="-575" y="155" width="150" height="110" as="geometry" />
        </mxCell>
        <mxCell id="44Fsm7tyjWuybCelUIXg-81" style="edgeStyle=orthogonalEdgeStyle;rounded=0;orthogonalLoop=1;jettySize=auto;html=1;fontSize=16;" edge="1" parent="1" source="44Fsm7tyjWuybCelUIXg-10" target="44Fsm7tyjWuybCelUIXg-65">
          <mxGeometry relative="1" as="geometry" />
        </mxCell>
        <mxCell id="44Fsm7tyjWuybCelUIXg-10" value="&lt;div style=&quot;font-size: 16px;&quot;&gt;&lt;span style=&quot;background-color: initial; font-size: 16px;&quot;&gt;Вычисляем хеш-функцию от индекса элемента в структуре, хранящей обрабатываемое значение в зависимости от его типа (strings, arrays, objects)&lt;/span&gt;&lt;br style=&quot;font-size: 16px;&quot;&gt;&lt;/div&gt;" style="rounded=1;whiteSpace=wrap;html=1;align=center;fontSize=16;" vertex="1" parent="1">
          <mxGeometry x="-360" y="1510" width="340" height="130" as="geometry" />
        </mxCell>
        <mxCell id="44Fsm7tyjWuybCelUIXg-62" style="edgeStyle=orthogonalEdgeStyle;rounded=0;orthogonalLoop=1;jettySize=auto;html=1;entryX=0.5;entryY=0;entryDx=0;entryDy=0;fontSize=16;" edge="1" parent="1" source="44Fsm7tyjWuybCelUIXg-11" target="44Fsm7tyjWuybCelUIXg-61">
          <mxGeometry relative="1" as="geometry">
            <mxPoint x="-220" y="1160" as="targetPoint" />
          </mxGeometry>
        </mxCell>
        <mxCell id="44Fsm7tyjWuybCelUIXg-113" style="edgeStyle=orthogonalEdgeStyle;rounded=0;orthogonalLoop=1;jettySize=auto;html=1;entryX=0;entryY=0.5;entryDx=0;entryDy=0;fontSize=16;" edge="1" parent="1" source="44Fsm7tyjWuybCelUIXg-11" target="44Fsm7tyjWuybCelUIXg-117">
          <mxGeometry relative="1" as="geometry">
            <mxPoint x="560" y="1200" as="targetPoint" />
          </mxGeometry>
        </mxCell>
        <mxCell id="44Fsm7tyjWuybCelUIXg-119" value="Да" style="edgeLabel;html=1;align=center;verticalAlign=middle;resizable=0;points=[];fontSize=16;" vertex="1" connectable="0" parent="44Fsm7tyjWuybCelUIXg-113">
          <mxGeometry x="-0.6421" y="-4" relative="1" as="geometry">
            <mxPoint as="offset" />
          </mxGeometry>
        </mxCell>
        <mxCell id="44Fsm7tyjWuybCelUIXg-11" value="Обрабатываемое значение находится внутри массива?" style="shape=parallelogram;perimeter=parallelogramPerimeter;whiteSpace=wrap;html=1;fixedSize=1;fontSize=16;" vertex="1" parent="1">
          <mxGeometry x="70" y="930" width="200" height="70" as="geometry" />
        </mxCell>
        <mxCell id="44Fsm7tyjWuybCelUIXg-90" style="edgeStyle=orthogonalEdgeStyle;rounded=0;orthogonalLoop=1;jettySize=auto;html=1;entryX=0.5;entryY=0;entryDx=0;entryDy=0;fontSize=16;" edge="1" parent="1" source="44Fsm7tyjWuybCelUIXg-14" target="44Fsm7tyjWuybCelUIXg-69">
          <mxGeometry relative="1" as="geometry" />
        </mxCell>
        <mxCell id="44Fsm7tyjWuybCelUIXg-99" style="edgeStyle=orthogonalEdgeStyle;rounded=0;orthogonalLoop=1;jettySize=auto;html=1;entryX=0.5;entryY=0;entryDx=0;entryDy=0;fontSize=16;" edge="1" parent="1" source="44Fsm7tyjWuybCelUIXg-14" target="44Fsm7tyjWuybCelUIXg-68">
          <mxGeometry relative="1" as="geometry" />
        </mxCell>
        <mxCell id="44Fsm7tyjWuybCelUIXg-101" value="Да" style="edgeLabel;html=1;align=center;verticalAlign=middle;resizable=0;points=[];fontSize=16;" vertex="1" connectable="0" parent="44Fsm7tyjWuybCelUIXg-99">
          <mxGeometry x="-0.7819" relative="1" as="geometry">
            <mxPoint as="offset" />
          </mxGeometry>
        </mxCell>
        <mxCell id="44Fsm7tyjWuybCelUIXg-109" style="edgeStyle=orthogonalEdgeStyle;rounded=0;orthogonalLoop=1;jettySize=auto;html=1;entryX=1;entryY=0.5;entryDx=0;entryDy=0;fontSize=16;" edge="1" parent="1" source="44Fsm7tyjWuybCelUIXg-14" target="44Fsm7tyjWuybCelUIXg-118">
          <mxGeometry relative="1" as="geometry">
            <mxPoint x="-550" y="1220" as="targetPoint" />
          </mxGeometry>
        </mxCell>
        <mxCell id="44Fsm7tyjWuybCelUIXg-110" value="Да" style="edgeLabel;html=1;align=center;verticalAlign=middle;resizable=0;points=[];fontSize=16;" vertex="1" connectable="0" parent="44Fsm7tyjWuybCelUIXg-109">
          <mxGeometry x="-0.1237" y="-4" relative="1" as="geometry">
            <mxPoint as="offset" />
          </mxGeometry>
        </mxCell>
        <mxCell id="44Fsm7tyjWuybCelUIXg-14" value="Обрабатываемое значение находится внутри&amp;nbsp; объекта?" style="shape=parallelogram;perimeter=parallelogramPerimeter;whiteSpace=wrap;html=1;fixedSize=1;fontSize=16;" vertex="1" parent="1">
          <mxGeometry x="-320" y="935" width="200" height="60" as="geometry" />
        </mxCell>
        <mxCell id="44Fsm7tyjWuybCelUIXg-24" style="edgeStyle=orthogonalEdgeStyle;rounded=0;orthogonalLoop=1;jettySize=auto;html=1;entryX=0.5;entryY=0;entryDx=0;entryDy=0;fontSize=16;" edge="1" parent="1" source="44Fsm7tyjWuybCelUIXg-15" target="44Fsm7tyjWuybCelUIXg-25">
          <mxGeometry relative="1" as="geometry">
            <mxPoint x="20" y="790" as="targetPoint" />
          </mxGeometry>
        </mxCell>
        <mxCell id="44Fsm7tyjWuybCelUIXg-15" value="Обрабатываем строковое значение?" style="shape=parallelogram;perimeter=parallelogramPerimeter;whiteSpace=wrap;html=1;fixedSize=1;fontSize=16;" vertex="1" parent="1">
          <mxGeometry x="-440" y="360" width="320" height="60" as="geometry" />
        </mxCell>
        <mxCell id="44Fsm7tyjWuybCelUIXg-17" value="&lt;ol style=&quot;font-size: 16px;&quot;&gt;&lt;li style=&quot;font-size: 16px;&quot;&gt;Добавляем строку в массив strings&lt;/li&gt;&lt;li style=&quot;font-size: 16px;&quot;&gt;Добавляем в объект stringIndexes индекс значения строки в массиве strings&lt;/li&gt;&lt;/ol&gt;" style="rounded=1;whiteSpace=wrap;html=1;align=left;fontSize=16;" vertex="1" parent="1">
          <mxGeometry x="-832" y="415" width="242" height="115" as="geometry" />
        </mxCell>
        <mxCell id="44Fsm7tyjWuybCelUIXg-20" style="edgeStyle=orthogonalEdgeStyle;rounded=0;orthogonalLoop=1;jettySize=auto;html=1;entryX=0.5;entryY=0;entryDx=0;entryDy=0;fontSize=16;" edge="1" parent="1" source="44Fsm7tyjWuybCelUIXg-18" target="44Fsm7tyjWuybCelUIXg-17">
          <mxGeometry relative="1" as="geometry" />
        </mxCell>
        <mxCell id="44Fsm7tyjWuybCelUIXg-18" value="Обрабатываем ключ?" style="shape=parallelogram;perimeter=parallelogramPerimeter;whiteSpace=wrap;html=1;fixedSize=1;fontSize=16;" vertex="1" parent="1">
          <mxGeometry x="-827" y="265" width="220" height="60" as="geometry" />
        </mxCell>
        <mxCell id="44Fsm7tyjWuybCelUIXg-51" style="edgeStyle=orthogonalEdgeStyle;rounded=0;orthogonalLoop=1;jettySize=auto;html=1;entryX=0.5;entryY=0;entryDx=0;entryDy=0;fontSize=16;" edge="1" parent="1" source="44Fsm7tyjWuybCelUIXg-22" target="44Fsm7tyjWuybCelUIXg-15">
          <mxGeometry relative="1" as="geometry" />
        </mxCell>
        <mxCell id="44Fsm7tyjWuybCelUIXg-52" style="edgeStyle=orthogonalEdgeStyle;rounded=0;orthogonalLoop=1;jettySize=auto;html=1;entryX=0.5;entryY=0;entryDx=0;entryDy=0;fontSize=16;" edge="1" parent="1" source="44Fsm7tyjWuybCelUIXg-22" target="44Fsm7tyjWuybCelUIXg-53">
          <mxGeometry relative="1" as="geometry">
            <mxPoint x="80" y="410" as="targetPoint" />
          </mxGeometry>
        </mxCell>
        <mxCell id="44Fsm7tyjWuybCelUIXg-121" style="edgeStyle=orthogonalEdgeStyle;rounded=0;orthogonalLoop=1;jettySize=auto;html=1;entryX=0.5;entryY=0;entryDx=0;entryDy=0;fontSize=16;" edge="1" parent="1" source="44Fsm7tyjWuybCelUIXg-22" target="44Fsm7tyjWuybCelUIXg-120">
          <mxGeometry relative="1" as="geometry" />
        </mxCell>
        <mxCell id="44Fsm7tyjWuybCelUIXg-149" style="edgeStyle=orthogonalEdgeStyle;rounded=0;orthogonalLoop=1;jettySize=auto;html=1;entryX=0.5;entryY=0;entryDx=0;entryDy=0;fontSize=16;" edge="1" parent="1" source="44Fsm7tyjWuybCelUIXg-22" target="44Fsm7tyjWuybCelUIXg-141">
          <mxGeometry relative="1" as="geometry" />
        </mxCell>
        <mxCell id="44Fsm7tyjWuybCelUIXg-22" value="Обрабатываем значение?" style="shape=parallelogram;perimeter=parallelogramPerimeter;whiteSpace=wrap;html=1;fixedSize=1;fontSize=16;" vertex="1" parent="1">
          <mxGeometry x="-380" y="270" width="180" height="60" as="geometry" />
        </mxCell>
        <mxCell id="44Fsm7tyjWuybCelUIXg-23" style="edgeStyle=orthogonalEdgeStyle;rounded=0;orthogonalLoop=1;jettySize=auto;html=1;entryX=0.57;entryY=-0.067;entryDx=0;entryDy=0;entryPerimeter=0;fontSize=16;" edge="1" parent="1" source="44Fsm7tyjWuybCelUIXg-4" target="44Fsm7tyjWuybCelUIXg-22">
          <mxGeometry relative="1" as="geometry" />
        </mxCell>
        <mxCell id="44Fsm7tyjWuybCelUIXg-37" style="edgeStyle=orthogonalEdgeStyle;rounded=0;orthogonalLoop=1;jettySize=auto;html=1;entryX=0.5;entryY=1;entryDx=0;entryDy=0;fontSize=16;" edge="1" parent="1" source="44Fsm7tyjWuybCelUIXg-25" target="44Fsm7tyjWuybCelUIXg-17">
          <mxGeometry relative="1" as="geometry" />
        </mxCell>
        <mxCell id="44Fsm7tyjWuybCelUIXg-38" value="Нет" style="edgeLabel;html=1;align=center;verticalAlign=middle;resizable=0;points=[];fontSize=16;" vertex="1" connectable="0" parent="44Fsm7tyjWuybCelUIXg-37">
          <mxGeometry x="-0.3776" y="-2" relative="1" as="geometry">
            <mxPoint as="offset" />
          </mxGeometry>
        </mxCell>
        <mxCell id="44Fsm7tyjWuybCelUIXg-91" style="edgeStyle=orthogonalEdgeStyle;rounded=0;orthogonalLoop=1;jettySize=auto;html=1;fontSize=16;exitX=0.5;exitY=1;exitDx=0;exitDy=0;" edge="1" parent="1" source="44Fsm7tyjWuybCelUIXg-25" target="44Fsm7tyjWuybCelUIXg-27">
          <mxGeometry relative="1" as="geometry" />
        </mxCell>
        <mxCell id="44Fsm7tyjWuybCelUIXg-94" value="Да" style="edgeLabel;html=1;align=center;verticalAlign=middle;resizable=0;points=[];fontSize=16;" vertex="1" connectable="0" parent="44Fsm7tyjWuybCelUIXg-91">
          <mxGeometry x="0.0652" y="-1" relative="1" as="geometry">
            <mxPoint as="offset" />
          </mxGeometry>
        </mxCell>
        <mxCell id="44Fsm7tyjWuybCelUIXg-25" value="&lt;div style=&quot;font-size: 16px;&quot;&gt;&lt;span style=&quot;background-color: initial; font-size: 16px;&quot;&gt;Значение явзяется одним из следующих типов, предствленных в формате строки:&lt;/span&gt;&lt;/div&gt;&lt;div style=&quot;font-size: 16px;&quot;&gt;&lt;ol style=&quot;font-size: 16px;&quot;&gt;&lt;li style=&quot;font-size: 16px;&quot;&gt;boolean&lt;/li&gt;&lt;li style=&quot;font-size: 16px;&quot;&gt;date&lt;/li&gt;&lt;li style=&quot;font-size: 16px;&quot;&gt;datetime&lt;/li&gt;&lt;li style=&quot;font-size: 16px;&quot;&gt;time&lt;/li&gt;&lt;li style=&quot;font-size: 16px;&quot;&gt;uri&lt;/li&gt;&lt;li style=&quot;font-size: 16px;&quot;&gt;integer&lt;br style=&quot;font-size: 16px;&quot;&gt;&lt;/li&gt;&lt;/ol&gt;&lt;/div&gt;" style="shape=parallelogram;perimeter=parallelogramPerimeter;whiteSpace=wrap;html=1;fixedSize=1;align=left;spacingLeft=18;fontSize=16;" vertex="1" parent="1">
          <mxGeometry x="-540" y="550" width="340" height="200" as="geometry" />
        </mxCell>
        <mxCell id="44Fsm7tyjWuybCelUIXg-32" style="edgeStyle=orthogonalEdgeStyle;rounded=0;orthogonalLoop=1;jettySize=auto;html=1;entryX=0.5;entryY=1;entryDx=0;entryDy=0;fontSize=16;" edge="1" parent="1" source="44Fsm7tyjWuybCelUIXg-27" target="44Fsm7tyjWuybCelUIXg-17">
          <mxGeometry relative="1" as="geometry" />
        </mxCell>
        <mxCell id="44Fsm7tyjWuybCelUIXg-27" value="Записываем строковое значение как название типа, в котоором оно представлено (например, boolean, если строка содержит логическое значение)" style="rounded=1;whiteSpace=wrap;html=1;fontSize=16;" vertex="1" parent="1">
          <mxGeometry x="-827" y="730" width="232" height="140" as="geometry" />
        </mxCell>
        <mxCell id="44Fsm7tyjWuybCelUIXg-41" style="edgeStyle=orthogonalEdgeStyle;rounded=0;orthogonalLoop=1;jettySize=auto;html=1;fontSize=16;" edge="1" parent="1" source="44Fsm7tyjWuybCelUIXg-40">
          <mxGeometry relative="1" as="geometry">
            <mxPoint x="-189.99999999999955" y="1515" as="targetPoint" />
          </mxGeometry>
        </mxCell>
        <mxCell id="44Fsm7tyjWuybCelUIXg-47" value="Да" style="edgeLabel;html=1;align=center;verticalAlign=middle;resizable=0;points=[];fontSize=16;" vertex="1" connectable="0" parent="44Fsm7tyjWuybCelUIXg-41">
          <mxGeometry x="0.4098" relative="1" as="geometry">
            <mxPoint as="offset" />
          </mxGeometry>
        </mxCell>
        <mxCell id="44Fsm7tyjWuybCelUIXg-48" style="edgeStyle=orthogonalEdgeStyle;rounded=0;orthogonalLoop=1;jettySize=auto;html=1;entryX=0.5;entryY=0;entryDx=0;entryDy=0;fontSize=16;" edge="1" parent="1" source="44Fsm7tyjWuybCelUIXg-40" target="44Fsm7tyjWuybCelUIXg-45">
          <mxGeometry relative="1" as="geometry" />
        </mxCell>
        <mxCell id="44Fsm7tyjWuybCelUIXg-49" value="Нет" style="edgeLabel;html=1;align=center;verticalAlign=middle;resizable=0;points=[];fontSize=16;" vertex="1" connectable="0" parent="44Fsm7tyjWuybCelUIXg-48">
          <mxGeometry x="-0.0789" y="-3" relative="1" as="geometry">
            <mxPoint as="offset" />
          </mxGeometry>
        </mxCell>
        <mxCell id="44Fsm7tyjWuybCelUIXg-40" value="Обрабатываемое значение имеет тип строки, объекта или массива?" style="shape=parallelogram;perimeter=parallelogramPerimeter;whiteSpace=wrap;html=1;fixedSize=1;fontSize=16;" vertex="1" parent="1">
          <mxGeometry x="-283" y="1310" width="470" height="70" as="geometry" />
        </mxCell>
        <mxCell id="44Fsm7tyjWuybCelUIXg-67" style="edgeStyle=orthogonalEdgeStyle;rounded=0;orthogonalLoop=1;jettySize=auto;html=1;entryX=1;entryY=0.5;entryDx=0;entryDy=0;fontSize=16;" edge="1" parent="1" source="44Fsm7tyjWuybCelUIXg-42" target="44Fsm7tyjWuybCelUIXg-65">
          <mxGeometry relative="1" as="geometry" />
        </mxCell>
        <mxCell id="44Fsm7tyjWuybCelUIXg-42" value="Вычисляем хеш-функцию от заданного ординала, соответствущего текщуему обрабатываемому примитивному типу" style="rounded=1;whiteSpace=wrap;html=1;fontSize=16;" vertex="1" parent="1">
          <mxGeometry x="45" y="1510" width="260" height="140" as="geometry" />
        </mxCell>
        <mxCell id="44Fsm7tyjWuybCelUIXg-50" style="edgeStyle=orthogonalEdgeStyle;rounded=0;orthogonalLoop=1;jettySize=auto;html=1;entryX=0.5;entryY=0;entryDx=0;entryDy=0;fontSize=16;" edge="1" parent="1" source="44Fsm7tyjWuybCelUIXg-45" target="44Fsm7tyjWuybCelUIXg-42">
          <mxGeometry relative="1" as="geometry" />
        </mxCell>
        <mxCell id="44Fsm7tyjWuybCelUIXg-45" value="Обрабатываемое значение имеет примитивный тип?" style="shape=parallelogram;perimeter=parallelogramPerimeter;whiteSpace=wrap;html=1;fixedSize=1;fontSize=16;" vertex="1" parent="1">
          <mxGeometry x="-30" y="1420" width="410" height="60" as="geometry" />
        </mxCell>
        <mxCell id="44Fsm7tyjWuybCelUIXg-78" style="edgeStyle=orthogonalEdgeStyle;rounded=0;orthogonalLoop=1;jettySize=auto;html=1;entryX=1;entryY=0.5;entryDx=0;entryDy=0;fontSize=16;" edge="1" parent="1" source="44Fsm7tyjWuybCelUIXg-53" target="44Fsm7tyjWuybCelUIXg-55">
          <mxGeometry relative="1" as="geometry" />
        </mxCell>
        <mxCell id="44Fsm7tyjWuybCelUIXg-53" value="Обрабатываем значение, имеющее один из примитивных типов, поддерживаемых в JSON:&lt;div style=&quot;font-size: 16px;&quot;&gt;&lt;ol style=&quot;font-size: 16px;&quot;&gt;&lt;li style=&quot;font-size: 16px;&quot;&gt;boolean&lt;/li&gt;&lt;li style=&quot;font-size: 16px;&quot;&gt;double&lt;/li&gt;&lt;li style=&quot;font-size: 16px;&quot;&gt;integer&lt;/li&gt;&lt;li style=&quot;font-size: 16px;&quot;&gt;null&lt;/li&gt;&lt;/ol&gt;&lt;/div&gt;" style="shape=parallelogram;perimeter=parallelogramPerimeter;whiteSpace=wrap;html=1;fixedSize=1;align=left;spacingLeft=20;fontSize=16;" vertex="1" parent="1">
          <mxGeometry x="60" y="350" width="354" height="180" as="geometry" />
        </mxCell>
        <mxCell id="44Fsm7tyjWuybCelUIXg-58" style="edgeStyle=orthogonalEdgeStyle;rounded=0;orthogonalLoop=1;jettySize=auto;html=1;entryX=0.5;entryY=0;entryDx=0;entryDy=0;fontSize=16;" edge="1" parent="1" source="44Fsm7tyjWuybCelUIXg-55" target="44Fsm7tyjWuybCelUIXg-11">
          <mxGeometry relative="1" as="geometry" />
        </mxCell>
        <mxCell id="44Fsm7tyjWuybCelUIXg-98" style="edgeStyle=orthogonalEdgeStyle;rounded=0;orthogonalLoop=1;jettySize=auto;html=1;entryX=0.5;entryY=0;entryDx=0;entryDy=0;fontSize=16;" edge="1" parent="1" source="44Fsm7tyjWuybCelUIXg-55" target="44Fsm7tyjWuybCelUIXg-14">
          <mxGeometry relative="1" as="geometry" />
        </mxCell>
        <mxCell id="44Fsm7tyjWuybCelUIXg-55" value="Записываем значение в соотвествующуюю родительскую структуру&amp;nbsp;" style="rounded=1;whiteSpace=wrap;html=1;fontSize=16;" vertex="1" parent="1">
          <mxGeometry x="-126" y="550" width="220" height="60" as="geometry" />
        </mxCell>
        <mxCell id="44Fsm7tyjWuybCelUIXg-107" style="edgeStyle=orthogonalEdgeStyle;rounded=0;orthogonalLoop=1;jettySize=auto;html=1;entryX=0.5;entryY=0;entryDx=0;entryDy=0;fontSize=16;" edge="1" parent="1" source="44Fsm7tyjWuybCelUIXg-61" target="44Fsm7tyjWuybCelUIXg-102">
          <mxGeometry relative="1" as="geometry" />
        </mxCell>
        <mxCell id="44Fsm7tyjWuybCelUIXg-61" value="Вычисляем хэш-функцию для обрабатываемого значения" style="rounded=1;whiteSpace=wrap;html=1;fontSize=16;" vertex="1" parent="1">
          <mxGeometry x="110" y="1060" width="140" height="70" as="geometry" />
        </mxCell>
        <mxCell id="44Fsm7tyjWuybCelUIXg-65" value="Вычисленное значение на основе хеш-функции" style="rounded=1;whiteSpace=wrap;html=1;fontSize=16;" vertex="1" parent="1">
          <mxGeometry x="-120" y="1714" width="170" height="80" as="geometry" />
        </mxCell>
        <mxCell id="44Fsm7tyjWuybCelUIXg-104" style="edgeStyle=orthogonalEdgeStyle;rounded=0;orthogonalLoop=1;jettySize=auto;html=1;fontSize=16;" edge="1" parent="1" source="44Fsm7tyjWuybCelUIXg-68" target="44Fsm7tyjWuybCelUIXg-102">
          <mxGeometry relative="1" as="geometry" />
        </mxCell>
        <mxCell id="44Fsm7tyjWuybCelUIXg-68" value="Вычисляем хэш-функцию для ключа" style="rounded=1;whiteSpace=wrap;html=1;fontSize=16;" vertex="1" parent="1">
          <mxGeometry x="-370" y="1070" width="120" height="60" as="geometry" />
        </mxCell>
        <mxCell id="44Fsm7tyjWuybCelUIXg-106" style="edgeStyle=orthogonalEdgeStyle;rounded=0;orthogonalLoop=1;jettySize=auto;html=1;entryX=0.5;entryY=0;entryDx=0;entryDy=0;fontSize=16;" edge="1" parent="1" source="44Fsm7tyjWuybCelUIXg-69" target="44Fsm7tyjWuybCelUIXg-102">
          <mxGeometry relative="1" as="geometry" />
        </mxCell>
        <mxCell id="44Fsm7tyjWuybCelUIXg-69" value="Вычисляем хэш-функцию для обрабатываемого значения" style="rounded=1;whiteSpace=wrap;html=1;fontSize=16;" vertex="1" parent="1">
          <mxGeometry x="-190" y="1055" width="156" height="80" as="geometry" />
        </mxCell>
        <mxCell id="44Fsm7tyjWuybCelUIXg-96" style="edgeStyle=orthogonalEdgeStyle;rounded=0;orthogonalLoop=1;jettySize=auto;html=1;entryX=0.443;entryY=-0.05;entryDx=0;entryDy=0;entryPerimeter=0;fontSize=16;" edge="1" parent="1" source="44Fsm7tyjWuybCelUIXg-15" target="44Fsm7tyjWuybCelUIXg-55">
          <mxGeometry relative="1" as="geometry" />
        </mxCell>
        <mxCell id="44Fsm7tyjWuybCelUIXg-97" value="Да" style="edgeLabel;html=1;align=center;verticalAlign=middle;resizable=0;points=[];fontSize=16;" vertex="1" connectable="0" parent="44Fsm7tyjWuybCelUIXg-96">
          <mxGeometry x="-0.8199" y="-2" relative="1" as="geometry">
            <mxPoint as="offset" />
          </mxGeometry>
        </mxCell>
        <mxCell id="44Fsm7tyjWuybCelUIXg-117" value="Записываем результат хеш-функции от значения в элемент массива arrays, отвечающий за родительский массив&amp;nbsp;" style="rounded=1;whiteSpace=wrap;html=1;fontSize=16;" vertex="1" parent="1">
          <mxGeometry x="570" y="1140" width="245" height="200" as="geometry" />
        </mxCell>
        <mxCell id="44Fsm7tyjWuybCelUIXg-118" value="Записываем кортеж из вычисленных хеш-функций от ключа и обрабатываемого значения ключа в элемент массива objects, отвечающий за родительский объект" style="rounded=1;whiteSpace=wrap;html=1;fontSize=16;" vertex="1" parent="1">
          <mxGeometry x="-780" y="1130" width="245" height="200" as="geometry" />
        </mxCell>
        <mxCell id="44Fsm7tyjWuybCelUIXg-123" style="edgeStyle=orthogonalEdgeStyle;rounded=0;orthogonalLoop=1;jettySize=auto;html=1;fontSize=16;" edge="1" parent="1" source="44Fsm7tyjWuybCelUIXg-120" target="44Fsm7tyjWuybCelUIXg-124">
          <mxGeometry relative="1" as="geometry">
            <mxPoint x="620" y="550" as="targetPoint" />
          </mxGeometry>
        </mxCell>
        <mxCell id="44Fsm7tyjWuybCelUIXg-120" value="&lt;font style=&quot;font-size: 16px;&quot;&gt;Обрабатываем массив?&lt;/font&gt;" style="shape=parallelogram;perimeter=parallelogramPerimeter;whiteSpace=wrap;html=1;fixedSize=1;fontSize=16;" vertex="1" parent="1">
          <mxGeometry x="490" y="350" width="260" height="100" as="geometry" />
        </mxCell>
        <mxCell id="44Fsm7tyjWuybCelUIXg-126" style="edgeStyle=orthogonalEdgeStyle;rounded=0;orthogonalLoop=1;jettySize=auto;html=1;entryX=0.5;entryY=0;entryDx=0;entryDy=0;fontSize=16;" edge="1" parent="1" source="44Fsm7tyjWuybCelUIXg-124" target="44Fsm7tyjWuybCelUIXg-125">
          <mxGeometry relative="1" as="geometry" />
        </mxCell>
        <mxCell id="44Fsm7tyjWuybCelUIXg-124" value="&lt;font style=&quot;font-size: 16px;&quot;&gt;Создаем новый элемент в массиве arrays, отвечающий за текущий обрабатываемый массив&lt;/font&gt;" style="rounded=1;whiteSpace=wrap;html=1;fontSize=16;" vertex="1" parent="1">
          <mxGeometry x="470" y="530" width="300" height="110" as="geometry" />
        </mxCell>
        <mxCell id="44Fsm7tyjWuybCelUIXg-136" style="edgeStyle=orthogonalEdgeStyle;rounded=0;orthogonalLoop=1;jettySize=auto;html=1;entryX=1;entryY=0.5;entryDx=0;entryDy=0;fontSize=16;" edge="1" parent="1" target="44Fsm7tyjWuybCelUIXg-55">
          <mxGeometry relative="1" as="geometry">
            <mxPoint x="800" y="950" as="sourcePoint" />
          </mxGeometry>
        </mxCell>
        <mxCell id="44Fsm7tyjWuybCelUIXg-138" style="edgeStyle=orthogonalEdgeStyle;rounded=0;orthogonalLoop=1;jettySize=auto;html=1;entryX=0.5;entryY=0;entryDx=0;entryDy=0;fontSize=16;" edge="1" parent="1" source="44Fsm7tyjWuybCelUIXg-125" target="44Fsm7tyjWuybCelUIXg-139">
          <mxGeometry relative="1" as="geometry">
            <mxPoint x="620" y="830" as="targetPoint" />
          </mxGeometry>
        </mxCell>
        <mxCell id="44Fsm7tyjWuybCelUIXg-125" value="&lt;font style=&quot;font-size: 16px;&quot;&gt;Обрабатываем элементы массива&lt;/font&gt;" style="rounded=1;whiteSpace=wrap;html=1;fontSize=16;" vertex="1" parent="1">
          <mxGeometry x="462.5" y="690" width="315" height="60" as="geometry" />
        </mxCell>
        <mxCell id="44Fsm7tyjWuybCelUIXg-135" value="" style="curved=1;endArrow=classic;html=1;rounded=0;entryX=1;entryY=0.5;entryDx=0;entryDy=0;fontSize=16;" edge="1" parent="1" target="44Fsm7tyjWuybCelUIXg-4">
          <mxGeometry width="50" height="50" relative="1" as="geometry">
            <mxPoint x="820" y="670" as="sourcePoint" />
            <mxPoint x="190" y="420" as="targetPoint" />
            <Array as="points">
              <mxPoint x="840" y="140" />
              <mxPoint x="630" y="110" />
              <mxPoint x="200" y="100" />
            </Array>
          </mxGeometry>
        </mxCell>
        <mxCell id="44Fsm7tyjWuybCelUIXg-139" value="Завершение обработки массива" style="rounded=1;whiteSpace=wrap;html=1;fontSize=16;" vertex="1" parent="1">
          <mxGeometry x="545" y="810" width="150" height="70" as="geometry" />
        </mxCell>
        <mxCell id="44Fsm7tyjWuybCelUIXg-140" style="edgeStyle=orthogonalEdgeStyle;rounded=0;orthogonalLoop=1;jettySize=auto;html=1;fontSize=16;" edge="1" parent="1" source="44Fsm7tyjWuybCelUIXg-141" target="44Fsm7tyjWuybCelUIXg-143">
          <mxGeometry relative="1" as="geometry">
            <mxPoint x="1007.5" y="540" as="targetPoint" />
          </mxGeometry>
        </mxCell>
        <mxCell id="44Fsm7tyjWuybCelUIXg-141" value="&lt;font style=&quot;font-size: 16px;&quot;&gt;Обрабатываем объект?&lt;/font&gt;" style="shape=parallelogram;perimeter=parallelogramPerimeter;whiteSpace=wrap;html=1;fixedSize=1;fontSize=16;" vertex="1" parent="1">
          <mxGeometry x="877.5" y="340" width="260" height="100" as="geometry" />
        </mxCell>
        <mxCell id="44Fsm7tyjWuybCelUIXg-142" style="edgeStyle=orthogonalEdgeStyle;rounded=0;orthogonalLoop=1;jettySize=auto;html=1;entryX=0.5;entryY=0;entryDx=0;entryDy=0;fontSize=16;" edge="1" parent="1" source="44Fsm7tyjWuybCelUIXg-143" target="44Fsm7tyjWuybCelUIXg-145">
          <mxGeometry relative="1" as="geometry" />
        </mxCell>
        <mxCell id="44Fsm7tyjWuybCelUIXg-143" value="&lt;font style=&quot;font-size: 16px;&quot;&gt;Создаем новый элемент в массиве objects, отвечающий за текущий обрабатываемый объект&lt;/font&gt;" style="rounded=1;whiteSpace=wrap;html=1;fontSize=16;" vertex="1" parent="1">
          <mxGeometry x="857.5" y="520" width="300" height="110" as="geometry" />
        </mxCell>
        <mxCell id="44Fsm7tyjWuybCelUIXg-144" style="edgeStyle=orthogonalEdgeStyle;rounded=0;orthogonalLoop=1;jettySize=auto;html=1;entryX=0.5;entryY=0;entryDx=0;entryDy=0;fontSize=16;" edge="1" parent="1" source="44Fsm7tyjWuybCelUIXg-145" target="44Fsm7tyjWuybCelUIXg-146">
          <mxGeometry relative="1" as="geometry">
            <mxPoint x="1007.5" y="820" as="targetPoint" />
          </mxGeometry>
        </mxCell>
        <mxCell id="44Fsm7tyjWuybCelUIXg-145" value="&lt;font style=&quot;font-size: 16px;&quot;&gt;Обрабатываем свойства объекта&lt;/font&gt;" style="rounded=1;whiteSpace=wrap;html=1;fontSize=16;" vertex="1" parent="1">
          <mxGeometry x="850" y="690" width="315" height="60" as="geometry" />
        </mxCell>
        <mxCell id="44Fsm7tyjWuybCelUIXg-146" value="Завершение обработки объекта" style="rounded=1;whiteSpace=wrap;html=1;fontSize=16;" vertex="1" parent="1">
          <mxGeometry x="932.5" y="810" width="150" height="70" as="geometry" />
        </mxCell>
        <mxCell id="44Fsm7tyjWuybCelUIXg-151" value="" style="endArrow=none;html=1;rounded=0;exitX=1;exitY=0.5;exitDx=0;exitDy=0;entryX=0;entryY=0.5;entryDx=0;entryDy=0;fontSize=16;" edge="1" parent="1" source="44Fsm7tyjWuybCelUIXg-125" target="44Fsm7tyjWuybCelUIXg-145">
          <mxGeometry width="50" height="50" relative="1" as="geometry">
            <mxPoint x="230" y="530" as="sourcePoint" />
            <mxPoint x="280" y="480" as="targetPoint" />
            <Array as="points">
              <mxPoint x="820" y="670" />
            </Array>
          </mxGeometry>
        </mxCell>
        <mxCell id="44Fsm7tyjWuybCelUIXg-152" value="" style="endArrow=none;html=1;rounded=0;entryX=1;entryY=0.5;entryDx=0;entryDy=0;exitX=0;exitY=0.5;exitDx=0;exitDy=0;fontSize=16;" edge="1" parent="1" source="44Fsm7tyjWuybCelUIXg-146" target="44Fsm7tyjWuybCelUIXg-139">
          <mxGeometry width="50" height="50" relative="1" as="geometry">
            <mxPoint x="540" y="930" as="sourcePoint" />
            <mxPoint x="590" y="880" as="targetPoint" />
            <Array as="points">
              <mxPoint x="800" y="950" />
            </Array>
          </mxGeometry>
        </mxCell>
        <mxCell id="44Fsm7tyjWuybCelUIXg-155" style="edgeStyle=orthogonalEdgeStyle;rounded=0;orthogonalLoop=1;jettySize=auto;html=1;entryX=0.5;entryY=0;entryDx=0;entryDy=0;" edge="1" parent="1" source="44Fsm7tyjWuybCelUIXg-153" target="44Fsm7tyjWuybCelUIXg-154">
          <mxGeometry relative="1" as="geometry" />
        </mxCell>
        <mxCell id="44Fsm7tyjWuybCelUIXg-153" value="Завершение обработки JSON файла" style="rounded=1;whiteSpace=wrap;html=1;" vertex="1" parent="1">
          <mxGeometry x="-1060" y="180" width="120" height="60" as="geometry" />
        </mxCell>
        <mxCell id="44Fsm7tyjWuybCelUIXg-154" value="Сформированы структуры типов, которые хранятся в переменных objects и arrays" style="rounded=1;whiteSpace=wrap;html=1;" vertex="1" parent="1">
          <mxGeometry x="-1080" y="300" width="160" height="90" as="geometry" />
        </mxCell>
      </root>
    </mxGraphModel>
  </diagram>
</mxfile>
